<svg xmlns="http://www.w3.org/2000/svg" width="22.875" height="22.875" viewBox="0 0 22.875 22.875">
  <defs>
    <style>
      .cls-1 {
        fill: #fff;
      }
    </style>
  </defs>
  <path id="Cross_icon" class="cls-1" d="M25.237,20.305h0L18.3,13.366l6.939-6.94h0a.717.717,0,0,0,0-1.011L21.959,2.137a.717.717,0,0,0-1.011,0h0l-6.94,6.94-6.94-6.94h0a.717.717,0,0,0-1.011,0L2.78,5.415a.717.717,0,0,0,0,1.011h0l6.94,6.94-6.94,6.94h0a.716.716,0,0,0,0,1.011l3.278,3.278a.717.717,0,0,0,1.011,0h0l6.94-6.94,6.94,6.94h0a.716.716,0,0,0,1.011,0l3.278-3.278a.716.716,0,0,0,0-1.011Z" transform="translate(-2.571 -1.928)"/>
</svg>
