<svg xmlns="http://www.w3.org/2000/svg" width="46" height="46" viewBox="0 0 46 46">
  <defs>
    <style>
      .cls-1 {
        fill: #33a0ff;
        stroke: #33a0ff;
        stroke-width: 2px;
        opacity: 0.25;
      }

      .cls-2 {
        fill: #fff;
        fill-rule: evenodd;
      }

      .cls-3 {
        stroke: none;
      }

      .cls-4 {
        fill: none;
      }
    </style>
  </defs>
  <g id="fill_cart" transform="translate(-507 -1374)">
    <g id="Ellipse_1" data-name="Ellipse 1" class="cls-1" transform="translate(507 1374)">
      <circle class="cls-3" cx="23" cy="23" r="23"/>
      <circle class="cls-4" cx="23" cy="23" r="22"/>
    </g>
    <path id="cart_2" class="cls-2" d="M428.932,523a1.993,1.993,0,0,0,1.952-1.608l1-5A2,2,0,0,0,429.927,514h-9.956v-1a1,1,0,0,0-1-1H416.98a1,1,0,0,0,0,2h1v10a2,2,0,1,0,1.991,2h6.969a1.992,1.992,0,1,0,1.992-2h-8.961v-1Zm1-7-1,5h-8.961v-5h9.956Z" transform="translate(106.029 877)"/>
  </g>
</svg>
