<svg xmlns="http://www.w3.org/2000/svg" width="46" height="46" viewBox="0 0 46 46">
  <defs>
    <style>
      .cls-1, .cls-4 {
        fill: none;
      }

      .cls-1 {
        stroke: #33a0ff;
        stroke-width: 2px;
        opacity: 0.25;
      }

      .cls-2 {
        fill: #33a0ff;
        fill-rule: evenodd;
      }

      .cls-3 {
        stroke: none;
      }
    </style>
  </defs>
  <g id="favorite_icon" transform="translate(-458 -1374)">
    <g id="Ellipse_2" data-name="Ellipse 2" class="cls-1" transform="translate(458 1374)">
      <circle class="cls-3" cx="23" cy="23" r="23"/>
      <circle class="cls-4" cx="23" cy="23" r="22"/>
    </g>
    <path id="hearts" class="cls-2" d="M587,579a3,3,0,0,1,2.24,4.99c-.55.62-5.24,5.01-5.24,5.01s-4.7-4.39-5.25-5.02A2.965,2.965,0,0,1,578,582a3,3,0,0,1,6,0,3,3,0,0,1,3-3m0-2a4.973,4.973,0,0,0-3,1,5,5,0,0,0-6.746,7.3c.562.644,4.261,4.108,5.381,5.154a2,2,0,0,0,2.732,0c1.116-1.045,4.8-4.5,5.369-5.143A5,5,0,0,0,587,577Z" transform="translate(-103.017 813)"/>
  </g>
</svg>
