<svg xmlns="http://www.w3.org/2000/svg" width="121.674" height="32.256" viewBox="0 0 121.674 32.256">
  <defs>
    <style>
      .cls-1 {
        fill: #ff4252;
      }
    </style>
  </defs>
  <path id="iSHOP_Logo" data-name="iSHOP Logo" class="cls-1" d="M5.208-26.754A2.514,2.514,0,0,1,3.36-27.51,2.514,2.514,0,0,1,2.6-29.358a2.514,2.514,0,0,1,.756-1.848,2.514,2.514,0,0,1,1.848-.756,2.4,2.4,0,0,1,1.785.756,2.551,2.551,0,0,1,.735,1.848,2.551,2.551,0,0,1-.735,1.848A2.4,2.4,0,0,1,5.208-26.754Zm1.848,3.738V0H3.234V-23.016ZM23.6.294a13.924,13.924,0,0,1-5.523-1.05A9.068,9.068,0,0,1,14.2-3.78a7.962,7.962,0,0,1-1.47-4.662h6.3a4.074,4.074,0,0,0,1.281,2.856,4.538,4.538,0,0,0,3.171,1.05,4.878,4.878,0,0,0,3.234-.987,3.21,3.21,0,0,0,1.176-2.583,2.984,2.984,0,0,0-.8-2.142A5.591,5.591,0,0,0,25.1-11.571a33.015,33.015,0,0,0-3.3-1.071A35.31,35.31,0,0,1,17.157-14.3a8.129,8.129,0,0,1-3.066-2.478A7.062,7.062,0,0,1,12.81-21.21a7.922,7.922,0,0,1,1.3-4.536,8.281,8.281,0,0,1,3.654-2.961,13.294,13.294,0,0,1,5.376-1.029,11.663,11.663,0,0,1,7.371,2.2,8.174,8.174,0,0,1,3.129,6.153H27.174a3.359,3.359,0,0,0-1.281-2.5,4.827,4.827,0,0,0-3.171-.987,4.083,4.083,0,0,0-2.751.882,3.189,3.189,0,0,0-1.029,2.562,2.648,2.648,0,0,0,.777,1.953,5.925,5.925,0,0,0,1.932,1.26q1.155.483,3.255,1.113a34.2,34.2,0,0,1,4.662,1.68,8.372,8.372,0,0,1,3.108,2.52,7,7,0,0,1,1.3,4.41A8.3,8.3,0,0,1,32.76-4.116,8.6,8.6,0,0,1,29.19-.9,12.177,12.177,0,0,1,23.6.294ZM63.63-29.316V0H57.75V-12.474H45.192V0h-5.88V-29.316h5.88v12.054H57.75V-29.316ZM83.286.294a15.189,15.189,0,0,1-7.56-1.932,14.424,14.424,0,0,1-5.46-5.355,14.98,14.98,0,0,1-2.016-7.749,14.9,14.9,0,0,1,2.016-7.707,14.424,14.424,0,0,1,5.46-5.355,15.189,15.189,0,0,1,7.56-1.932A15.155,15.155,0,0,1,90.867-27.8a14.314,14.314,0,0,1,5.418,5.355,15.021,15.021,0,0,1,1.995,7.707,15.1,15.1,0,0,1-1.995,7.749,14.271,14.271,0,0,1-5.439,5.355A15.189,15.189,0,0,1,83.286.294Zm0-5.25a8.957,8.957,0,0,0,4.662-1.2A8.206,8.206,0,0,0,91.1-9.576a11.232,11.232,0,0,0,1.134-5.166A11.1,11.1,0,0,0,91.1-19.887a8.094,8.094,0,0,0-3.15-3.381,9.082,9.082,0,0,0-4.662-1.176A9.2,9.2,0,0,0,78.6-23.268a8.053,8.053,0,0,0-3.171,3.381A11.1,11.1,0,0,0,74.3-14.742a11.232,11.232,0,0,0,1.134,5.166A8.163,8.163,0,0,0,78.6-6.153,9.07,9.07,0,0,0,83.286-4.956Zm40.992-15.288a9.13,9.13,0,0,1-1.113,4.41,8.175,8.175,0,0,1-3.486,3.318,12.68,12.68,0,0,1-5.985,1.26H108.78V0H102.9V-29.316h10.794a13.044,13.044,0,0,1,5.8,1.176,8.192,8.192,0,0,1,3.591,3.234A9.1,9.1,0,0,1,124.278-20.244ZM113.442-16a5.1,5.1,0,0,0,3.612-1.113,4.1,4.1,0,0,0,1.176-3.129q0-4.284-4.788-4.284H108.78V-16Z" transform="translate(-2.604 31.962)"/>
</svg>
